{"scene":0,"scenes":[{"nodes":[0]}],"asset":{"version":"2.0","generator":"https://github.com/mikedh/trimesh"},"accessors":[{"componentType":5125,"type":"SCALAR","bufferView":0,"count":384,"max":[65],"min":[0]},{"componentType":5126,"type":"VEC3","byteOffset":0,"bufferView":1,"count":66,"max":[0.029999999329447746,0.029999999329447746,0.07500000298023224],"min":[-0.029999999329447746,-0.029999999329447746,-0.07500000298023224]},{"componentType":5126,"type":"VEC2","byteOffset":0,"bufferView":5,"count":66,"max":[1.0,0.699999988079071],"min":[0.0,0.30000001192092896]}],"meshes":[{"name":"geometry_0","extras":{"units":"meters","from_gltf_primitive":false,"shape":"cylinder","height":0.15,"radius":0.03,"processed":true},"primitives":[{"attributes":{"POSITION":1,"TEXCOORD_0":2},"indices":0,"mode":4,"material":0}]}],"images":[{"bufferView":2,"mimeType":"image/png"},{"bufferView":3,"mimeType":"image/png"},{"bufferView":4,"mimeType":"image/png"}],"textures":[{"source":0},{"source":1},{"source":2}],"materials":[{"pbrMetallicRoughness":{"baseColorTexture":{"index":0},"roughnessFactor":0.25,"metallicFactor":0.9,"metallicRoughnessTexture":{"index":2}},"emissiveFactor":[1.0,1.0,1.0],"doubleSided":false,"emissiveTexture":{"index":1}}],"nodes":[{"name":"world","children":[1]},{"name":"geometry_0","mesh":0}],"buffers":[{"uri":"gltf_buffer_0.bin","byteLength":1536},{"uri":"gltf_buffer_1.bin","byteLength":792},{"uri":"gltf_buffer_2.bin","byteLength":547032},{"uri":"gltf_buffer_3.bin","byteLength":1960},{"uri":"gltf_buffer_4.bin","byteLength":380808},{"uri":"gltf_buffer_5.bin","byteLength":528}],"bufferViews":[{"buffer":0,"byteOffset":0,"byteLength":1536},{"buffer":1,"byteOffset":0,"byteLength":792},{"buffer":2,"byteOffset":0,"byteLength":547032},{"buffer":3,"byteOffset":0,"byteLength":1960},{"buffer":4,"byteOffset":0,"byteLength":380808},{"buffer":5,"byteOffset":0,"byteLength":528}]}